# xmcd
# 
# Track frame offsets:
#     150
#     11060
#     17988
#     23463
#     30645
#     41205
#     59195
#     61213
#     69335
#     73328
#     76858
#     85548
#     109763
#     122700
#     142350
# 
# Disc length: 2033
# 
# Revision: 0
# Processed by: cddbd v1.5.2PL0 Copyright (c) Steve Scherf et al.
# Submitted via: fre:ac v1.0.17
# 
DISCID=d207ef0f
DTITLE=Willie Nelson - Red Headed Stranger
DYEAR=1975
DGENRE=Country
TTITLE0=Time of the Preacher
TTITLE1=I Couldn't Believe It Was True
TTITLE2=Time of the Preacher Theme
TTITLE3=Medley: Blue Rock Montana - Red Headed Stranger
TTITLE4=Blue Eyes Crying in the Rain
TTITLE5=Red Headed Stranger
TTITLE6=Time of the Preacher Theme
TTITLE7=Just as I Am
TTITLE8=Denver
TTITLE9=O'er the Waves
TTITLE10=Down Yonder
TTITLE11=Can I Sleep in Your Arms
TTITLE12=Remember Me
TTITLE13=Hands on the Wheel
TTITLE14=Bandera
EXTD=YEAR: 1975
EXTT0=
EXTT1=
EXTT2=
EXTT3=
EXTT4=
EXTT5=
EXTT6=
EXTT7=
EXTT8=
EXTT9=
EXTT10=
EXTT11=
EXTT12=
EXTT13=
EXTT14=
PLAYORDER=
